<svg width="24" height="24" viewBox="0 0 24 24" fill="none" xmlns="http://www.w3.org/2000/svg">
<rect width="24" height="24" rx="12" fill="#2F67DD"/>
<path d="M12 16.7583C11.7872 16.7583 11.602 16.6796 11.4445 16.5221C11.287 16.3646 11.2083 16.1812 11.2083 15.9719V12.7916H8.02809C7.81877 12.7916 7.63536 12.7129 7.47787 12.5554C7.32038 12.3979 7.24164 12.2128 7.24164 12C7.24164 11.7872 7.32038 11.602 7.47787 11.4445C7.63536 11.287 7.81877 11.2083 8.02809 11.2083H11.2083V8.02809C11.2083 7.81877 11.287 7.63536 11.4445 7.47787C11.602 7.32038 11.7872 7.24164 12 7.24164C12.2128 7.24164 12.3979 7.32038 12.5554 7.47787C12.7129 7.63536 12.7916 7.81877 12.7916 8.02809V11.2083H15.9719C16.1812 11.2083 16.3646 11.287 16.5221 11.4445C16.6796 11.602 16.7583 11.7872 16.7583 12C16.7583 12.2128 16.6796 12.3979 16.5221 12.5554C16.3646 12.7129 16.1812 12.7916 15.9719 12.7916H12.7916V15.9719C12.7916 16.1812 12.7129 16.3646 12.5554 16.5221C12.3979 16.6796 12.2128 16.7583 12 16.7583Z" fill="white"/>
</svg>
