<svg width="18" height="18" viewBox="0 0 18 18" fill="none" xmlns="http://www.w3.org/2000/svg">
<g id="18/check">
<path id="Vector" d="M7.18119 13.2844C7.06923 13.2844 6.95965 13.2627 6.85245 13.2192C6.74525 13.1757 6.64342 13.1057 6.54695 13.0093L3.3782 9.84051C3.20728 9.66959 3.12494 9.45505 3.13119 9.1969C3.13744 8.93875 3.22603 8.72421 3.39695 8.55329C3.56788 8.38236 3.78078 8.2969 4.03567 8.2969C4.29056 8.2969 4.50347 8.38236 4.67439 8.55329L7.21869 11.0976L13.3442 4.97204C13.5152 4.80111 13.7235 4.7149 13.9691 4.7134C14.2148 4.71191 14.4245 4.79812 14.5984 4.97204C14.7694 5.14296 14.8548 5.352 14.8548 5.59915C14.8548 5.84629 14.7694 6.05532 14.5984 6.22624L7.81543 13.0093C7.71897 13.1057 7.61713 13.1757 7.50993 13.2192C7.40273 13.2627 7.29315 13.2844 7.18119 13.2844Z" fill="#2F67DD"/>
</g>
</svg>
