<svg width="20" height="20" viewBox="0 0 20 20" fill="none" xmlns="http://www.w3.org/2000/svg">
<g id="20/expand">
<path id="Vector" d="M9.99998 12.568C9.87557 12.568 9.75382 12.5438 9.6347 12.4955C9.51559 12.4472 9.40245 12.3694 9.29527 12.2622L5.52443 8.49141C5.33452 8.30149 5.2465 8.06659 5.26039 7.7867C5.27428 7.50681 5.36924 7.27885 5.54527 7.10283C5.74907 6.89902 5.98398 6.80059 6.24998 6.80753C6.51598 6.81448 6.74393 6.91291 6.93385 7.10283L9.99998 10.1898L13.0869 7.10283C13.2769 6.91291 13.5013 6.81795 13.7604 6.81795C14.0194 6.81795 14.2509 6.91985 14.4547 7.12366C14.6446 7.31358 14.7396 7.54501 14.7396 7.81795C14.7396 8.09089 14.6446 8.32232 14.4547 8.51224L10.7047 12.2622C10.5975 12.3694 10.4844 12.4472 10.3652 12.4955C10.2461 12.5438 10.1244 12.568 9.99998 12.568Z" fill="black"/>
</g>
</svg>
