<svg width="20" height="20" viewBox="0 0 20 20" fill="none" xmlns="http://www.w3.org/2000/svg">
<g id="20/grid">
<path id="Vector" d="M4.55474 9.00002C4.07871 9.00002 3.67243 8.82828 3.33589 8.48479C2.99933 8.14129 2.83105 7.73665 2.83105 7.27086V4.55981C2.83105 4.08429 3.00055 3.67721 3.33955 3.33858C3.67854 2.99995 4.08605 2.83063 4.56208 2.83063H7.27676C7.75279 2.83063 8.15908 2.99995 8.49564 3.33858C8.83218 3.67721 9.00045 4.08429 9.00045 4.55981V7.27086C9.00045 7.73665 8.83096 8.14129 8.49197 8.48479C8.15299 8.82828 7.74548 9.00002 7.26945 9.00002H4.55474ZM4.55474 17.1694C4.07871 17.1694 3.67243 16.9999 3.33589 16.6609C2.99933 16.3219 2.83105 15.9144 2.83105 15.4384V12.7237C2.83105 12.2477 3.00055 11.8414 3.33955 11.5048C3.67854 11.1683 4.08605 11 4.56208 11H7.27676C7.75279 11 8.15908 11.1695 8.49564 11.5085C8.83218 11.8475 9.00045 12.255 9.00045 12.731V15.4457C9.00045 15.9218 8.83096 16.328 8.49197 16.6646C8.15299 17.0011 7.74548 17.1694 7.26945 17.1694H4.55474ZM12.7296 9.00002C12.2638 9.00002 11.8592 8.82828 11.5157 8.48479C11.1722 8.14129 11.0005 7.73665 11.0005 7.27086V4.55981C11.0005 4.08429 11.1722 3.67721 11.5157 3.33858C11.8592 2.99995 12.2638 2.83063 12.7296 2.83063H15.4407C15.9162 2.83063 16.3233 2.99995 16.6619 3.33858C17.0005 3.67721 17.1698 4.08429 17.1698 4.55981V7.27086C17.1698 7.73665 17.0005 8.14129 16.6619 8.48479C16.3233 8.82828 15.9162 9.00002 15.4407 9.00002H12.7296ZM12.7296 17.1694C12.2638 17.1694 11.8592 16.9999 11.5157 16.6609C11.1722 16.3219 11.0005 15.9144 11.0005 15.4384V12.7237C11.0005 12.2477 11.1722 11.8414 11.5157 11.5048C11.8592 11.1683 12.2638 11 12.7296 11H15.4407C15.9162 11 16.3233 11.1695 16.6619 11.5085C17.0005 11.8475 17.1698 12.255 17.1698 12.731V15.4457C17.1698 15.9218 17.0005 16.328 16.6619 16.6646C16.3233 17.0011 15.9162 17.1694 15.4407 17.1694H12.7296Z" fill="#22345F"/>
</g>
</svg>
