<svg width="20" height="20" viewBox="0 0 20 20" fill="none" xmlns="http://www.w3.org/2000/svg">
<g id="20/search">
<path id="Vector" d="M7.96088 13.1145C6.54161 13.1145 5.33424 12.6168 4.33877 11.6213C3.3433 10.6259 2.84556 9.41874 2.84556 7.99996C2.84556 6.58118 3.3433 5.37406 4.33877 4.37858C5.33424 3.38311 6.54137 2.88538 7.96015 2.88538C9.37892 2.88538 10.586 3.38311 11.5815 4.37858C12.577 5.37406 13.0747 6.58142 13.0747 8.00069C13.0747 8.56817 12.9912 9.09798 12.8243 9.59011C12.6573 10.0822 12.4277 10.5333 12.1354 10.9434L16.5539 15.3668C16.7299 15.5462 16.8179 15.7472 16.8179 15.9698C16.8179 16.1925 16.7283 16.3919 16.5489 16.5679C16.3729 16.7439 16.1692 16.8319 15.938 16.8319C15.7067 16.8319 15.503 16.7439 15.327 16.5679L10.9135 12.1752C10.5002 12.4675 10.0458 12.6971 9.55029 12.8641C9.05485 13.0311 8.52504 13.1145 7.96088 13.1145ZM7.96015 11.3854C8.90248 11.3854 9.7023 11.0567 10.3596 10.3994C11.0169 9.74211 11.3456 8.94229 11.3456 7.99996C11.3456 7.05763 11.0169 6.25781 10.3596 5.6005C9.7023 4.9432 8.90248 4.61454 7.96015 4.61454C7.01781 4.61454 6.21799 4.9432 5.56069 5.6005C4.90338 6.25781 4.57473 7.05763 4.57473 7.99996C4.57473 8.94229 4.90338 9.74211 5.56069 10.3994C6.21799 11.0567 7.01781 11.3854 7.96015 11.3854Z" fill="#6C6C6C"/>
</g>
</svg>
