<svg width="18" height="18" viewBox="0 0 18 18" fill="none" xmlns="http://www.w3.org/2000/svg">
<g id="18/settings">
<path id="Vector" d="M10.4608 16.6524H7.53903C7.31512 16.6524 7.12007 16.5778 6.9539 16.4287C6.78774 16.2795 6.69066 16.0929 6.66267 15.869L6.46091 14.2406C6.35982 14.1746 6.24399 14.1038 6.11341 14.0283C5.98285 13.9527 5.86403 13.8849 5.75696 13.8249L4.24107 14.4677C4.02666 14.5546 3.81375 14.5616 3.60234 14.4886C3.39092 14.4157 3.22924 14.2797 3.11729 14.0808L1.66619 11.5484C1.55424 11.3494 1.52239 11.1435 1.57062 10.9306C1.61885 10.7177 1.72842 10.5413 1.89935 10.4013L3.17598 9.41575C3.17897 9.3527 3.18046 9.28341 3.18046 9.20787V8.79211C3.18046 8.71657 3.17897 8.64728 3.17598 8.58423L1.89935 7.59863C1.72842 7.4557 1.61885 7.27778 1.57062 7.06488C1.52237 6.85197 1.55423 6.64755 1.66619 6.45162L3.11729 3.91915C3.23223 3.72621 3.39541 3.59252 3.60684 3.51805C3.81825 3.4436 4.02966 3.44985 4.24107 3.5368L5.76594 4.17961C5.873 4.11956 5.98957 4.05251 6.11566 3.97846C6.24175 3.90441 6.35683 3.83437 6.46091 3.76833L6.66267 2.13096C6.69066 1.90406 6.78699 1.71677 6.95167 1.56908C7.11634 1.42138 7.31213 1.34753 7.53903 1.34753H10.4608C10.6877 1.34753 10.8835 1.42138 11.0481 1.56908C11.2128 1.71677 11.3091 1.90406 11.3371 2.13096L11.5389 3.76833C11.64 3.83437 11.7558 3.90441 11.8864 3.97846C12.0169 4.05251 12.1358 4.11956 12.2428 4.17961L13.7587 3.5368C13.9701 3.44985 14.1823 3.44286 14.3952 3.51582C14.6081 3.58878 14.7706 3.72323 14.8825 3.91915L16.3568 6.45162C16.4688 6.65053 16.5038 6.85645 16.4618 7.06936C16.4198 7.28226 16.3056 7.45868 16.1192 7.59863L14.8381 8.58423C14.8351 8.64728 14.8336 8.71657 14.8336 8.79211V8.99999C14.8336 9.06303 14.8329 9.13232 14.8314 9.20787C14.8299 9.28341 14.8321 9.3527 14.8381 9.41575L16.1192 10.4013C16.3026 10.5413 16.4153 10.7177 16.4573 10.9306C16.4993 11.1435 16.4643 11.3494 16.3524 11.5484L14.878 14.0853C14.7661 14.2842 14.6051 14.4194 14.3952 14.4909C14.1853 14.5624 13.9731 14.5546 13.7587 14.4677L12.2339 13.8249C12.1268 13.8849 12.0102 13.9527 11.8841 14.0283C11.758 14.1038 11.643 14.1746 11.5389 14.2406L11.3371 15.869C11.3091 16.0929 11.2128 16.2795 11.0481 16.4287C10.8835 16.5779 10.6877 16.6524 10.4608 16.6524ZM8.98645 11.6812C9.72396 11.6812 10.3552 11.4187 10.8802 10.8937C11.4052 10.3687 11.6677 9.73749 11.6677 8.99999C11.6677 8.26249 11.4052 7.63124 10.8802 7.10624C10.3552 6.58124 9.72396 6.31874 8.98645 6.31874C8.25194 6.31874 7.62144 6.58124 7.09494 7.10624C6.56845 7.63124 6.30521 8.26249 6.30521 8.99999C6.30521 9.73749 6.56845 10.3687 7.09494 10.8937C7.62144 11.4187 8.25194 11.6812 8.98645 11.6812Z" fill="black"/>
</g>
</svg>
